<?xml version="1.0" encoding="utf-8"?>
<!-- Generator: Adobe Illustrator 23.0.3, SVG Export Plug-In . SVG Version: 6.00 Build 0)  -->
<svg version="1.1" id="Ebene_1" xmlns="http://www.w3.org/2000/svg" xmlns:xlink="http://www.w3.org/1999/xlink" x="0px" y="0px"
	 viewBox="0 0 512 512" style="enable-background:new 0 0 512 512;" xml:space="preserve">
<style type="text/css">
	.st0{fill:#78377D;}
	.st1{fill:#FFFFFF;}
</style>
<g>
	<path class="st0" d="M512,130.8L381.2,0H130.8c0,0,0,0,0,0L0,130.8v250.5L130.8,512h250.5L512,381.3c0,0,0,0,0,0V130.8z"/>
	<path class="st1" d="M171.4,352l9.9,19.8c13.6,27.1,41.2,44.2,71.6,44.2h46.6c35.3,0,69.6-28.7,69.6-64V240v-80c0-8.8-7.2-16-16-16
		s-16,7.2-16,16v80v8c0,4.4-3.6,8-8,8c-4.4,0-8-3.6-8-8v-8V112c0-8.8-7.2-16-16-16s-16,7.2-16,16v120c0,4.4-3.6,8-8,8
		c-4.4,0-8-3.6-8-8V80c0-8.8-7.2-16-16-16s-16,7.2-16,16v152c0,4.4-3.6,8-8,8c-4.4,0-8-3.6-8-8V112c0-8.8-7.2-16-16-16
		s-16,7.2-16,16v128v35.2l-25.5-36.3c-5.3-8.4-18.9-11.5-27.8-7c-9.1,4.6-13.1,15.5-9.1,24.9L171.4,352z"/>
</g>
</svg>
