<svg xmlns="http://www.w3.org/2000/svg" viewBox="0 0 686.78 686.58"><defs><style>.cls-1{fill:#1999a9;}</style></defs><title>up</title><g id="Ebene_2" data-name="Ebene 2"><g id="Ebene_1-2" data-name="Ebene 1"><path class="cls-1" d="M686.59,214.08c-.2-33-6.69-64.63-21.36-94.4C642.59,73.74,608,39.76,561.46,18.84,517.1-1.09,470.8-5.36,423.42,6.76,375.67,19,336.7,44.78,306.87,84c-27.55,36.18-42.36,77.21-43,122.76s-.29,90.83-.39,136.25c-.11,46.65,39.68,80,80.53,79.43,35.09-.53,72.39-27.13,77.37-68.89,1-8.55,1-17.09,1-25.65,0-21.86.05-43.71-.09-65.56,0-5.82-1.14-6.85-6.78-6.91-12.85-.14-25.71,0-38.56-.08-3,0-6,0-9-.25-8.05-.81-14.34-10.4-8.09-18.18,2.68-3.34,5.33-6.71,8.09-10q43.14-51,86.32-101.94c3-3.59,6-7.31,9.35-10.59,7.08-6.92,15.5-6.93,22.86-.18a62.19,62.19,0,0,1,5.13,5.73q6.69,7.8,13.31,15.65,40.59,48.1,81.16,96.23a36,36,0,0,1,4.64,6.1c4,7.78-.28,16-9,17.16a68.83,68.83,0,0,1-9,.25c-11.14,0-22.28,0-33.42,0-2.56,0-5.14,0-7.68.27a3.52,3.52,0,0,0-3.41,3.22c-.29,3-.41,6-.42,9,0,21.85-.22,43.7,0,65.55s-1.65,43.62-7.7,64.81C513,419.44,503,439.23,489,456.83,456.1,498.1,413.33,521.9,360.89,527c-44.17,4.3-85.23-6.16-121.7-31.64-39.9-27.87-65.61-65.7-75.82-113.63-.62-2.92-1.53-5.78-2.3-8.67-2.44-17-1.95-34.16-2-51.28q-.1-83.58-.18-167.16c0-16.71.18-33.44-.21-50.14-.5-21.7-9.19-39.65-25.48-54.1-17-15.12-37.1-21-59.37-19.33C43.2,33.3,20.6,47.93,7.11,76,1.78,87.09.22,98.8.22,111Q.18,226.68,0,342.4c0,6.43,0,12.86.27,19.29.19,4.66-.18,9.46,2,13.85-.63,12.57,2.43,24.64,4.87,36.8,12.89,64.27,42.44,119.9,87.29,167.43A336.35,336.35,0,0,0,232.5,668.33a347.05,347.05,0,0,0,77.59,16.57,337.1,337.1,0,0,0,79.44-1.45,341.43,341.43,0,0,0,67.19-16.32A337,337,0,0,0,570,600.5c44.72-39.76,77.31-87.92,96.81-144.63,6.12-17.79,11.7-35.79,13.55-54.67a76.2,76.2,0,0,0,1.85-7.4,431.74,431.74,0,0,0,4.41-61.47Q687,273.22,686.59,214.08Z"/></g></g></svg>